<svg width="48" height="48" viewBox="0 0 48 48" fill="none" xmlns="http://www.w3.org/2000/svg">
<path d="M20.1189 3.55774C21.1274 -0.484692 26.8726 -0.484705 27.8811 3.55773L30.8692 15.536C31.2596 17.1009 32.5517 18.2783 34.1461 18.5219L44.1205 20.0459C48.6483 20.7377 48.6483 27.2623 44.1205 27.9541L34.1461 29.4781C32.5517 29.7217 31.2596 30.8991 30.8692 32.464L27.8811 44.4423C26.8726 48.4847 21.1274 48.4847 20.1189 44.4423L17.1308 32.464C16.7404 30.8991 15.4483 29.7217 13.8539 29.4781L3.87948 27.9541C-0.648319 27.2623 -0.648327 20.7377 3.87948 20.0459L13.8539 18.5219C15.4483 18.2783 16.7404 17.1009 17.1308 15.536L20.1189 3.55774Z" fill="black"/>
</svg>
